<?xml version="1.0" encoding="UTF-8"?>
<svg id="Layer_1" data-name="Layer 1" xmlns="http://www.w3.org/2000/svg" viewBox="0 0 1073 325">
  <defs>
    <style>
      .cls-1 {
        fill: #38b2ac;
      }

      .cls-1, .cls-2, .cls-3, .cls-4 {
        stroke-width: 0px;
      }

      .cls-2 {
        fill: #b2f5ea;
      }

      .cls-3 {
        fill: #fff;
      }

      .cls-4 {
        fill: #68d391;
      }
    </style>
  </defs>
  <rect class="cls-1" x="579.82" y="236.53" width="387.45" height="21.36"/>
  <rect class="cls-2" x="627.11" y="270.09" width="387.45" height="21.36"/>
  <rect class="cls-4" x="683.55" y="303.64" width="387.45" height="21.36"/>
  <g>
    <path class="cls-4" d="m36.61,324.48v-183.98c0-44.94,33.77-77.54,80.77-77.54s80.77,34.95,80.77,77.54c0,46.99-31.13,78.12-77.83,78.12-10.87,0-21.73-3.23-30.84-8.22v114.08h-52.86Zm108.67-183.68c0-15.57-11.16-28.19-27.9-28.19s-27.9,12.63-27.9,28.19,11.16,28.19,27.9,28.19,27.9-12.92,27.9-28.19Z"/>
    <path class="cls-4" d="m215.76,140.5c0-42.59,34.95-77.83,80.77-77.83s80.77,32.89,80.77,77.83v73.72h-49.93v-10.87c-9.4,9.69-18.81-.38-35.84-.38-42.88,0-75.76-19.59-75.76-62.47Zm108.67.29c0-15.57-11.16-28.49-27.9-28.49s-27.9,12.92-27.9,28.49,11.16,28.19,27.9,28.19,27.9-12.92,27.9-28.19Z"/>
    <path class="cls-4" d="m406.65,214.22v-81.35c0-39.06,22.32-70.19,70.19-70.19,9.99,0,20.85,1.76,28.19,4.99v50.81c-7.05-3.82-15.86-2.82-23.2-2.82-13.8,0-22.32,4.88-22.32,18.98v79.59h-52.86Z"/>
    <path class="cls-4" d="m521.19,214.22V-.18h52.86v121.3h10.28c1.17-2.35,2.35-4.7,4.11-6.76l34.95-46.99h62.56l-56.68,72.84,56.39,74.01h-61.97l-35.24-48.46c-1.47-2.06-2.94-4.4-3.82-6.46h-10.57v54.92h-52.86Z"/>
    <path class="cls-4" d="m687.42,139.03c0-42.29,31.72-77.54,78.12-77.54s74.89,35.83,74.89,75.19v13.22h-102.21c3.52,14.69,14.69,23.5,30.84,23.5,14.1,0,25.26-7.64,30.54-19.09l40.53,20.27c-12.63,27.31-37.59,43.76-70.49,43.76-46.99,0-82.23-31.13-82.23-79.3Zm100.44-16.45c-2.35-8.22-10.57-15.86-22.91-15.86s-21.15,7.34-24.38,15.86h47.28Z"/>
    <path class="cls-4" d="m860.98,141.09c0-46.99,31.13-78.12,77.83-78.12,10.87,0,21.73,3.23,30.84,8.22V-.18h52.87v141.27c0,44.94-33.77,77.54-80.77,77.54s-80.77-34.95-80.77-77.54Zm108.67-.29c0-15.27-11.16-28.19-27.9-28.19s-27.9,12.92-27.9,28.19,11.16,28.19,27.9,28.19,27.9-12.63,27.9-28.19Z"/>
  </g>
  <g>
    <path class="cls-3" d="m16.78,324.48v-183.98c0-44.94,33.77-77.54,80.77-77.54s80.77,34.95,80.77,77.54c0,46.99-31.13,78.12-77.83,78.12-10.87,0-21.73-3.23-30.84-8.22v114.08H16.78Zm108.67-183.68c0-15.57-11.16-28.19-27.9-28.19s-27.9,12.63-27.9,28.19,11.16,28.19,27.9,28.19,27.9-12.92,27.9-28.19Z"/>
    <path class="cls-3" d="m195.93,140.5c0-42.59,34.95-77.83,80.77-77.83s80.77,32.89,80.77,77.83v73.72h-49.93v-10.87c-9.4,9.69-22.61,15.27-39.65,15.27-42.88,0-71.96-35.24-71.96-78.12Zm108.67.29c0-15.57-11.16-28.49-27.9-28.49s-27.9,12.92-27.9,28.49,11.16,28.19,27.9,28.19,27.9-12.92,27.9-28.19Z"/>
    <path class="cls-3" d="m386.82,214.22v-81.35c0-39.06,22.32-70.19,70.19-70.19,9.99,0,20.85,1.76,28.19,4.99v50.81c-7.05-3.82-15.86-5.87-23.2-5.87-13.8,0-22.32,7.93-22.32,22.03v79.59h-52.86Z"/>
    <path class="cls-3" d="m501.36,214.22V-.18h52.86v121.3h10.28c1.17-2.35,2.35-4.7,4.11-6.76l34.95-46.99h62.56l-56.68,72.84,56.39,74.01h-61.97l-35.24-48.46c-1.47-2.06-2.94-4.4-3.82-6.46h-10.57v54.92h-52.86Z"/>
    <path class="cls-3" d="m667.58,139.03c0-42.29,31.72-77.54,78.12-77.54s74.89,35.83,74.89,75.19v13.22h-102.21c3.52,14.69,14.69,23.5,30.84,23.5,14.1,0,25.26-7.64,30.54-19.09l40.53,20.27c-12.63,27.31-37.59,43.76-70.49,43.76-46.99,0-82.23-31.13-82.23-79.3Zm100.44-16.45c-2.35-8.22-10.57-15.86-22.91-15.86s-21.15,7.34-24.38,15.86h47.28Z"/>
    <path class="cls-3" d="m841.15,141.09c0-46.99,31.13-78.12,77.83-78.12,10.87,0,21.73,3.23,30.84,8.22V-.18h52.87v141.27c0,44.94-33.77,77.54-80.77,77.54s-80.77-34.95-80.77-77.54Zm108.67-.29c0-15.27-11.16-28.19-27.9-28.19s-27.9,12.92-27.9,28.19,11.16,28.19,27.9,28.19,27.9-12.63,27.9-28.19Z"/>
  </g>
  <g>
    <path class="cls-1" d="m0,324.48v-183.98C0,95.56,33.77,62.97,80.77,62.97s80.77,34.95,80.77,77.54c0,46.99-31.13,78.12-77.83,78.12-10.87,0-21.73-3.23-30.84-8.22v114.08H0Zm108.67-183.68c0-15.57-11.16-28.19-27.9-28.19s-27.9,12.63-27.9,28.19,11.16,28.19,27.9,28.19,27.9-12.92,27.9-28.19Z"/>
    <path class="cls-1" d="m179.15,140.5c0-42.59,34.95-77.83,80.77-77.83s80.77,32.89,80.77,77.83v73.72h-49.93v-10.87c-9.4,9.69-22.61,15.27-39.65,15.27-42.88,0-71.96-35.24-71.96-78.12Zm108.67.29c0-15.57-11.16-28.49-27.9-28.49s-27.9,12.92-27.9,28.49,11.16,28.19,27.9,28.19,27.9-12.92,27.9-28.19Z"/>
    <path class="cls-1" d="m370.04,214.22v-81.35c0-39.06,22.32-70.19,70.19-70.19,9.99,0,20.85,1.76,28.19,4.99v50.81c-7.05-3.82-15.86-5.87-23.2-5.87-13.8,0-22.32,7.93-22.32,22.03v79.59h-52.86Z"/>
    <path class="cls-1" d="m484.58,214.22V-.18h52.86v121.3h10.28c1.17-2.35,2.35-4.7,4.11-6.76l34.95-46.99h62.56l-56.68,72.84,56.39,74.01h-61.97l-35.24-48.46c-1.47-2.06-2.94-4.4-3.82-6.46h-10.57v54.92h-52.86Z"/>
    <path class="cls-1" d="m650.81,139.03c0-42.29,31.72-77.54,78.12-77.54s74.89,35.83,74.89,75.19v13.22h-102.21c3.52,14.69,14.69,23.5,30.84,23.5,14.1,0,25.26-7.64,30.54-19.09l40.53,20.27c-12.63,27.31-37.59,43.76-70.49,43.76-46.99,0-82.23-31.13-82.23-79.3Zm100.44-16.45c-2.35-8.22-10.57-15.86-22.91-15.86s-21.15,7.34-24.38,15.86h47.28Z"/>
    <path class="cls-1" d="m824.37,141.09c0-46.99,31.13-78.12,77.83-78.12,10.87,0,21.73,3.23,30.84,8.22V-.18h52.87v141.27c0,44.94-33.77,77.54-80.77,77.54s-80.77-34.95-80.77-77.54Zm108.67-.29c0-15.27-11.16-28.19-27.9-28.19s-27.9,12.92-27.9,28.19,11.16,28.19,27.9,28.19,27.9-12.63,27.9-28.19Z"/>
  </g>
  <rect class="cls-3" x="468.46" y="45.85" width="16.02" height="86.95"/>
  <rect class="cls-3" x="458.94" y="45.85" width="16.78" height="19.83" transform="translate(41.01 -143.62) rotate(18.26)"/>
</svg>